<?xml version="1.0" encoding="utf-8"?>
<!-- Svg Vector Icons : http://www.onlinewebfonts.com/icon -->
<!DOCTYPE svg PUBLIC "-//W3C//DTD SVG 1.1//EN" "http://www.w3.org/Graphics/SVG/1.1/DTD/svg11.dtd">
<svg version="1.1" xmlns="http://www.w3.org/2000/svg" xmlns:xlink="http://www.w3.org/1999/xlink" x="0px" y="0px" viewBox="0 0 256 256" enable-background="new 0 0 256 256" xml:space="preserve">
<metadata> Svg Vector Icons : http://www.onlinewebfonts.com/icon </metadata>
<g><g><path fill="#000000" d="M142.9,140.9c-6.1,0-14.7,4.9-14.7,11c-0.1-6.1-8.7-11-14.7-11c-6.1,0-5.5,5-5.5,11.1c0,6.1-0.6,11.1,5.5,11.1c6.1,0,14.7-4.9,14.7-11c0.1,6.1,8.6,11,14.7,11c6.1,0,5.5-5,5.5-11.1C148.5,145.9,149,140.9,142.9,140.9z"/><path fill="#000000" d="M160.1,142.8c-2.4-3.9-4.5-9.6-5.6-14.9c5.4-5.5,10.1-12.3,13.6-19.6c11.4-1.3,18.8-17.7,18.8-27.5c0-7.2-3.6-11.4-11-13.5v-9.4C176,31.5,154.5,10,128,10S80.1,31.5,80.1,57.9v9.5c-7.4,2.1-10.8,6.3-10.8,13.4c0,9.7,7.2,25.9,18.4,27.5c3.6,7.3,8.2,14.1,13.7,19.6c-1,5.2-3.2,11-5.6,14.9c-23.7,0.9-48.8,13.3-48.8,36.8V211c0,24.4,38.3,35,62.7,35h36.9c24.4,0,62.7-10.6,62.7-35v-31.3C209.2,156,183.8,143.6,160.1,142.8z M83.8,234.9c-15.6-4.4-29.5-12.5-29.5-24v-31.4c0-8.4,4.4-15.1,11.1-19.9c0,0,18.4-6.9,18.4,23.6C83.8,208.4,83.8,234.9,83.8,234.9z M175.8,78.2h0.1v-3.1c1.9,1,3.6,2.4,3.6,5.7c0,5.1-2.8,14-7.5,18.1C174.5,91.9,175.8,84.8,175.8,78.2z M76.6,80.8c0-3.2,1.6-4.6,3.4-5.6v3H80c0,6.4,1.3,13.2,3.6,20.1C79.3,94,76.6,85.7,76.6,80.8z M87.5,78.2v-5.4c33.2-0.8,55.2-19.9,55.2-19.9c7,8.1,16.7,14.4,25.8,17.7l0,7.6c-0.2,24-19.8,55-40.5,55C107.3,133.2,87.5,102.2,87.5,78.2z M128.5,223.9c-2,0-3.7-1.7-3.7-3.7c0-2,1.7-3.7,3.7-3.7c2,0,3.7,1.7,3.7,3.7C132.1,222.2,130.5,223.9,128.5,223.9z M128.5,209.1c-2,0-3.7-1.7-3.7-3.7c0-2,1.7-3.7,3.7-3.7c2,0,3.7,1.7,3.7,3.7S130.5,209.1,128.5,209.1z M128.4,194.2c-5.7,0-25.8-33.2-25.8-47.5c0-14.3,11.6-6.7,25.8-6.7c14.3,0,25.8-7.6,25.8,6.7C154.2,161,134,194.2,128.4,194.2z M201.8,211c0,11.4-13.9,19.6-29.5,24c0,0,0-26.6,0-51.6c0-30.5,18.4-23.6,18.4-23.6c6.7,4.9,11.1,11.6,11.1,19.9V211z"/></g></g>
</svg>